<svg width="20" height="15" viewBox="0 0 20 15" fill="none" xmlns="http://www.w3.org/2000/svg">
<path d="M19.3743 3.74946C19.0293 3.74946 18.7493 4.02945 18.7493 4.37442V11.4515L13.7496 13.4514V6.87427C13.7496 6.52929 13.4696 6.24931 13.1247 6.24931C12.7797 6.24931 12.4997 6.52929 12.4997 6.87427V13.4501L7.50002 11.4502V1.54835L10.3961 2.70703C10.7123 2.83452 11.0798 2.67953 11.2085 2.3583C11.3373 2.03832 11.181 1.67459 10.8598 1.54585L7.11879 0.0484421C7.11879 0.0484421 7.11879 0.0484421 7.11754 0.0484421L7.10754 0.044692C6.9588 -0.0153043 6.79256 -0.0153043 6.64382 0.044692L6.63257 0.0484421C6.63257 0.0484421 6.63257 0.0484421 6.63132 0.0484421L0.392964 2.54454C0.156729 2.63953 0.000488281 2.86827 0.000488281 3.1245V14.3738C0.000488281 14.5813 0.104232 14.775 0.275471 14.8913C0.380465 14.9625 0.501707 14.9988 0.625449 14.9988C0.704194 14.9988 0.782939 14.9838 0.857935 14.9538L6.87506 12.5477L12.8809 14.95C12.8809 14.95 12.8809 14.95 12.8822 14.95L12.8934 14.955C13.0422 15.015 13.2084 15.015 13.3572 14.955L13.3684 14.95C13.3684 14.95 13.3684 14.95 13.3697 14.95L19.608 12.4552C19.843 12.3589 19.9992 12.1302 19.9992 11.874V4.37442C19.9992 4.02945 19.7193 3.74946 19.3743 3.74946ZM6.2501 11.4502L1.25041 13.4501V3.54698L6.2501 1.5471V11.4502Z" fill="white"/>
</svg>
